<svg xmlns="http://www.w3.org/2000/svg" viewBox="0 0 81.06 49.29">
  <g id="Layer_2" data-name="Layer 2">
    <g id="Layer_2-2" data-name="Layer 2">
      <g>
        <path d="M18.5,24.19l-7,20.72-1,2.94c-.31.91,1.14,1.3,1.45.39l7-20.72,1-2.93c.31-.92-1.14-1.31-1.45-.4Z"/>
        <path d="M35.49,10.05,24.27,43.13l-1.59,4.72c-.31.91,1.13,1.3,1.44.39L35.34,15.16l1.6-4.71c.31-.92-1.14-1.31-1.45-.4Z"/>
        <path d="M59.63,14.09l-10,29.6-1.41,4.17c-.31.92,1.14,1.31,1.45.4l10-29.6,1.42-4.17c.31-.91-1.14-1.31-1.45-.4Z"/>
        <path d="M68.63,25.39,62,45.07l-1,2.79c-.31.92,1.14,1.31,1.45.4l6.68-19.69.94-2.79c.31-.91-1.14-1.31-1.44-.39Z"/>
        <path d="M79.57,33.13,75,46.48l-.64,1.89c-.31.92,1.14,1.31,1.45.4l4.52-13.35L81,33.53c.31-.92-1.14-1.31-1.45-.4Z"/>
        <path d="M51.48.52l-5.42,16L37.42,42l-2,5.86c-.31.92,1.14,1.31,1.44.4l5.42-16L50.94,6.78l2-5.86c.31-.92-1.14-1.31-1.45-.4Z"/>
        <path d="M4.85,33.66.64,46.09,0,47.85c-.31.91,1.14,1.3,1.45.39L5.7,35.82l.6-1.76c.31-.92-1.14-1.31-1.45-.4Z"/>
      </g>
    </g>
  </g>
</svg>
