<svg xmlns="http://www.w3.org/2000/svg" viewBox="0 0 330.63 306.5">
  <g id="Layer_2" data-name="Layer 2">
    <g id="Layer_1-2" data-name="Layer 1">
      <g>
        <g id="Layer_2-2" data-name="Layer 2">
          <circle cx="171.98" cy="153.25" r="153.25" fill="#def1fc"/>
        </g>
        <g id="Layer_3" data-name="Layer 3">
          <path d="M322.23,172.53c-3.1,11.22-9.38,33.16-25.88,57.13-7.61,11.05-18.68,27.12-38.49,40-22.37,14.56-43.37,17-66.29,19.55-18.2,2-53.34,5.46-94.67-9.26C80.27,274,61.29,267.42,42.59,249.88,12.41,221.55,5.64,186.21,3.69,175.1c-2.44-13.92-7.57-45.72,9.15-78.25,4.42-8.64,16.26-31.64,40.57-42.13C65.49,49.52,68,52.86,93.65,47.8c23.69-4.67,23.72-7.94,52.89-15.41,24-6.16,42.76-8.74,60-11.11,19.52-2.69,29.55-4,42.22-3.68,18.8.51,34.7,1.24,49.64,11.94,14,10,19.86,23.7,23.74,32.75,7.4,17.28,7.38,31.76,7.45,51.34A208.44,208.44,0,0,1,322.23,172.53Z" fill="none" stroke="#231f20" stroke-miterlimit="10" stroke-width="2" opacity="0.32" style="isolation: isolate"/>
        </g>
        <g id="Layer_1-3" data-name="Layer 1">
          <g>
            <path d="M122.15,104.85v56h-4.42V112.53l-11.09,17.6-11-17.52v48.24H91.22v-56H96l10.81,17,10.8-17Z" fill="#231f20"/>
            <path d="M143,132.69c0-20,4.49-29,13.34-29s13.34,9,13.34,29-4.42,29-13.34,29S143,152.69,143,132.69Zm22.18,0c0-9.92-1.16-24.32-8.84-24.32s-8.89,14.4-8.89,24.32S148.57,157,156.26,157,165.14,142.61,165.14,132.69Z" fill="#231f20"/>
            <path d="M210.53,104.85l-10.66,23v33h-4.46v-33l-10.66-23h4.66L197.67,123l8.27-18.16Z" fill="#231f20"/>
            <path d="M244,152.13l-12-14.48-4.06,23.2h-4.27l10.22-56h5.36l10.8,56h-4.42Zm-1.53-8.4L236.48,112l-3.55,20.32Z" fill="#231f20"/>
            <path d="M117.66,204.05V178.49H120v14.85l12.75-14.89h2.52l-9.47,11.25,9.95,14.35h-2.57l-8.84-12.84-4.34,5v7.86Z" fill="#545554"/>
            <path d="M144.19,183.13v20.92H141.9V178.49h1.89L159,199.8V178.52h2.28v25.53h-2.12Z" fill="#545554"/>
            <path d="M170.35,204.05V178.49h2.28v25.56Z" fill="#545554"/>
            <path d="M198.14,180.72h-8.25v23.33h-2.28V180.72h-8.26v-2.23h18.79Z" fill="#545554"/>
            <path d="M218.41,183.28a5.41,5.41,0,0,0-1.14-1.1,6.7,6.7,0,0,0-1.47-.85,8.86,8.86,0,0,0-1.74-.57,8.34,8.34,0,0,0-2-.22,6.52,6.52,0,0,0-4.45,1.28,4.45,4.45,0,0,0-1.42,3.47,3.77,3.77,0,0,0,.67,2.37,4.75,4.75,0,0,0,2.1,1.4q1.8.65,3.66,1.11a24.69,24.69,0,0,1,4.27,1.37,6.56,6.56,0,0,1,2.77,2.14,6,6,0,0,1,1,3.65,6.84,6.84,0,0,1-.62,3,5.78,5.78,0,0,1-1.73,2.16,7.18,7.18,0,0,1-2.64,1.27,12.63,12.63,0,0,1-3.36.42,14.27,14.27,0,0,1-3.44-.42,12.5,12.5,0,0,1-5.86-3.29l1.15-2.05a8.6,8.6,0,0,0,1.48,1.35,12.39,12.39,0,0,0,1.92,1.13,10.32,10.32,0,0,0,2.29.78,12,12,0,0,0,2.53.27,7.23,7.23,0,0,0,4.32-1.12,3.78,3.78,0,0,0,1.55-3.3,3.87,3.87,0,0,0-.78-2.54,5.75,5.75,0,0,0-2.35-1.56,34.27,34.27,0,0,0-3.85-1.19,24.73,24.73,0,0,1-4.08-1.36,5.18,5.18,0,0,1-3.33-5.29,7.3,7.3,0,0,1,1.06-4,6.83,6.83,0,0,1,2.92-2.48,10.32,10.32,0,0,1,4.28-.84,11.4,11.4,0,0,1,2.85.34,9.75,9.75,0,0,1,4.55,2.61Z" fill="#545554"/>
          </g>
        </g>
      </g>
    </g>
  </g>
</svg>
